# xmcd
#
# Track frame offsets:
#	150
#	14485
#	25817
#	36975
#	48812
#	62540
#	72320
#	82707
#	93487
#	104860
#
# Disc length: 1579
#
# Revision: 1
# Processed by: cddbd v1.5.1PL0 Copyright (c) Steve Scherf et al.
# Submitted via: FreeRIP 2.35 
# Normalized: r0:TDELIM( - )
#
DISCID=7c06290a
DTITLE=Various Artist - Country Style Christmas
DYEAR=1993
DGENRE=Country
TTITLE0=Gene Autry - Rudolph the Red Nosed Reindeer
TTITLE1=Lynn Anderson - I Saw Mommy Kissing Santa Claus
TTITLE2=Charlie Rich - God Rest Ye Merry Gentlemen
TTITLE3=Frankie Laine - You're All I Want For Christmas
TTITLE4=Doris Day - Silver Bells
TTITLE5=Sweethearts Of The Rodeo - Jingle Bell Rock
TTITLE6=Tanya Tucker - Away In A Manger
TTITLE7=Willie Nelson - Frosty The Snowman
TTITLE8=Brothers Four - What Child Is This
TTITLE9=Burl Ives - It Came Upon A Midnight Clear
EXTD=
EXTT0=
EXTT1=
EXTT2=
EXTT3=
EXTT4=
EXTT5=
EXTT6=
EXTT7=
EXTT8=
EXTT9=
PLAYORDER=
